<?xml version="1.0" standalone="no"?><!DOCTYPE svg PUBLIC "-//W3C//DTD SVG 1.1//EN" "http://www.w3.org/Graphics/SVG/1.1/DTD/svg11.dtd"><svg t="1561969850247" class="icon" viewBox="0 0 1024 1024" version="1.1" xmlns="http://www.w3.org/2000/svg" p-id="15009" xmlns:xlink="http://www.w3.org/1999/xlink" width="128" height="128"><defs><style type="text/css"></style></defs><path d="M794.624 366.24A32.032 32.032 0 0 0 768 352h-32a32 32 0 0 0-32 32v192a32 32 0 0 0 32 32h128a32 32 0 0 0 32-32v-48c0-6.304-1.888-12.512-5.376-17.76l-96-144zM864 576h-128v-192h32l96 144V576z" fill="#333332" p-id="15010"></path><path d="M1007.872 490.752l-128-192A95.84 95.84 0 0 0 800 256h-128V192c0-52.928-43.072-96-96-96H96C43.072 96 0 139.072 0 192v352c0 52.928 43.072 96 96 96v96c0 52.928 43.072 96 96 96h36.544c14.304 55.072 64 96 123.488 96 59.424 0 109.12-40.928 123.424-96h169.024c14.304 55.072 64 96 123.488 96 59.424 0 109.12-40.928 123.424-96H928c52.928 0 96-43.072 96-96v-192c0-19.008-5.568-37.44-16.128-53.248zM96 576a32 32 0 0 1-32-32V192a32 32 0 0 1 32-32h480a32 32 0 0 1 32 32v352a32 32 0 0 1-32 32H96z m256.032 288a64 64 0 1 1 0-128 64 64 0 0 1 0 128zM768 864a64 64 0 1 1 0-128 64 64 0 0 1 0 128z m192-128a32 32 0 0 1-32 32h-36.576c-14.304-55.072-64-96-123.424-96-59.488 0-109.184 40.928-123.488 96h-169.024c-14.304-55.072-64-96-123.424-96-59.488 0-109.184 40.928-123.488 96H192a32 32 0 0 1-32-32v-96h416c52.928 0 96-43.072 96-96v-224h128c10.688 0 20.672 5.344 26.624 14.24l128 192c3.488 5.248 5.376 11.456 5.376 17.76v192z" fill="#333332" p-id="15011"></path></svg>