<?xml version="1.0" standalone="no"?><!DOCTYPE svg PUBLIC "-//W3C//DTD SVG 1.1//EN" "http://www.w3.org/Graphics/SVG/1.1/DTD/svg11.dtd"><svg t="1560952903743" class="icon" style="" viewBox="0 0 1024 1024" version="1.1" xmlns="http://www.w3.org/2000/svg" p-id="2834" xmlns:xlink="http://www.w3.org/1999/xlink" width="128" height="128"><defs><style type="text/css"></style></defs><path d="M609.9 115.3H419.7c-16.6 0-30-13.4-30-30s13.4-30 30-30H610c16.6 0 30 13.4 30 30s-13.5 30-30.1 30zM466 925.9H260.7c-49.6 0-90-40-90-89.3v-691c0-49.2 40.4-89.3 90-89.3h50.7c16.6 0 30 13.4 30 30s-13.4 30-30 30h-50.7c-16.5 0-30 13.1-30 29.3v691.1c0 16.1 13.5 29.3 30 29.3H466c16.6 0 30 13.4 30 30s-13.4 29.9-30 29.9z m356.3-486.6c-16.6 0-30-13.4-30-30V145.6c0-16.1-13.5-29.3-30-29.3h-49.7c-16.6 0-30-13.4-30-30s13.4-30 30-30h49.7c49.6 0 90 40 90 89.3v263.7c0 16.6-13.4 30-30 30zM340 595.3h175.6c13 0 23.6-10.9 23.6-24.5s-10.5-24.5-23.7-24.5H340c-13.1 0-23.7 10.9-23.7 24.5 0.1 13.6 10.6 24.5 23.7 24.5z m175.6 73.8H340.1c-13.1 0-23.7 10.9-23.7 24.5s10.5 24.5 23.7 24.5h175.5c13 0 23.6-10.9 23.6-24.5 0-13.5-10.6-24.5-23.6-24.5z m351.8 122.2h-66.2V686.2c31.3-24.1 50.2-62.5 50.2-103.4 0-71.1-55.9-129-124.6-129-68.7 0-124.6 57.9-124.6 129 0 42.7 20.1 82 53.5 105.9v102.6h-65c-23.2 0-42.1 19.6-42.1 43.6v63.4c0 24 18.9 43.6 42.1 43.6h276.7c23.2 0 42.1-19.6 42.1-43.6v-63.4c0-24-18.9-43.6-42.1-43.6zM650.2 582.8c0-43.8 34.3-79.3 76.6-79.3s76.6 35.5 76.6 79.3c0 28.2-14.7 54.5-38.2 68.6-7.4 4.5-11.9 12.6-11.9 21.4v118.4h-49.7V674.7c0-9.1-4.9-17.6-12.8-21.8-25-13.8-40.6-40.7-40.6-70.1z m211.3 309.5h-265V841h265v51.3zM409.9 440v-45.2h-52.1c-10.3-1-16-6.3-16.9-16 0.9-9.7 6.6-15.1 16.9-16h52.1V338h-52.1c-10.3-1-16-6.3-16.9-16 0.9-9.7 6.6-15.1 16.9-16h29.6l-45.1-65.6c-3.8-4.9-5.6-10.2-5.6-16 1.9-16.5 10.8-25.7 26.8-27.7 9.4 1 16.4 4.9 21.1 11.7l52.1 77.3 52.1-77.3c4.7-6.8 11.7-10.7 21.1-11.7 16 2 24.9 11.2 26.8 27.7 0 5.8-1.9 11.2-5.6 16L486 306h29.6c10.3 1 16 6.3 16.9 16-0.9 9.7-6.6 15.1-16.9 16h-52.1v24.8h52.1c10.3 1 16 6.3 16.9 16-0.9 9.7-6.6 15.1-16.9 16h-52.1V440c-0.9 16.5-9.9 24.8-26.8 24.8-17 0-25.9-8.3-26.8-24.8z" p-id="2835"></path></svg>