<?xml version="1.0" standalone="no"?><!DOCTYPE svg PUBLIC "-//W3C//DTD SVG 1.1//EN" "http://www.w3.org/Graphics/SVG/1.1/DTD/svg11.dtd"><svg t="1560952881848" class="icon" style="" viewBox="0 0 1024 1024" version="1.1" xmlns="http://www.w3.org/2000/svg" p-id="2683" xmlns:xlink="http://www.w3.org/1999/xlink" width="128" height="128"><defs><style type="text/css"></style></defs><path d="M763.3 937.6H260.7c-49.6 0-90-39.3-90-87.7V173.1c0-48.4 40.4-87.7 90-87.7h50.7c16.6 0 30 13.4 30 30s-13.4 30-30 30h-50.7c-16.5 0-30 12.4-30 27.7v676.8c0 15.3 13.5 27.7 30 27.7h502.7c16.5 0 30-12.4 30-27.7V173.1c0-15.3-13.5-27.7-30-27.7h-50.7c-16.6 0-30-13.4-30-30s13.4-30 30-30h50.7c49.6 0 90 39.3 90 87.7v676.8c-0.1 48.3-40.4 87.7-90.1 87.7zM607.1 144.4H416.9c-16.6 0-30-13.4-30-30s13.4-30 30-30h190.3c16.6 0 30 13.4 30 30s-13.5 30-30.1 30z m75.6 205H341.3c-16.6 0-30-13.4-30-30s13.4-30 30-30h341.3c16.6 0 30 13.4 30 30s-13.4 30-29.9 30z m0 156H341.3c-16.6 0-30-13.4-30-30s13.4-30 30-30h341.3c16.6 0 30 13.4 30 30s-13.4 30-29.9 30zM512 661.4H341.3c-16.6 0-30-13.4-30-30s13.4-30 30-30H512c16.6 0 30 13.4 30 30s-13.4 30-30 30z" p-id="2684"></path></svg>