<?xml version="1.0" standalone="no"?><!DOCTYPE svg PUBLIC "-//W3C//DTD SVG 1.1//EN" "http://www.w3.org/Graphics/SVG/1.1/DTD/svg11.dtd"><svg t="1562684721903" class="icon" viewBox="0 0 1024 1024" version="1.1" xmlns="http://www.w3.org/2000/svg" p-id="2150" xmlns:xlink="http://www.w3.org/1999/xlink" width="128" height="128"><defs><style type="text/css"></style></defs><path d="M512 992c-70.4 0-128-57.6-128-128h64c0 35.2 28.8 64 64 64s64-28.8 64-64h64c0 70.4-57.6 128-128 128z" fill="#444444" p-id="2151"></path><path d="M995.2 896H28.8l41.6-51.2S192 694.4 192 544v-192C192 179.2 339.2 32 512 32s320 147.2 320 320v192c0 150.4 118.4 297.6 121.6 300.8l41.6 51.2zM156.8 832H864c-41.6-60.8-99.2-172.8-99.2-288v-192c0-137.6-118.4-256-256-256s-256 118.4-256 256v192c3.2 115.2-54.4 227.2-96 288z" fill="#444444" p-id="2152"></path></svg>