<?xml version="1.0" standalone="no"?><!DOCTYPE svg PUBLIC "-//W3C//DTD SVG 1.1//EN" "http://www.w3.org/Graphics/SVG/1.1/DTD/svg11.dtd"><svg t="1560952420191" class="icon" style="" viewBox="0 0 1024 1024" version="1.1" xmlns="http://www.w3.org/2000/svg" p-id="1888" xmlns:xlink="http://www.w3.org/1999/xlink" width="128" height="128"><defs><style type="text/css"></style></defs><path d="M868.6 572.4c-40.9-40.9-95.2-63.4-153-63.4s-112.1 22.5-153 63.4c-40.9 40.9-63.4 95.2-63.4 153s22.5 112.1 63.4 153 95.2 63.4 153 63.4 112.1-22.5 153-63.4 63.4-95.2 63.4-153-22.5-112.2-63.4-153zM715.7 891.6c-91.7 0-166.3-74.6-166.3-166.3S624 559 715.7 559c47.9 0 91.2 20.4 121.6 52.9l-138 138-60.4-60.4c-11.7-11.7-30.7-11.7-42.4 0s-11.7 30.7 0 42.4l81.6 81.6c5.9 5.9 13.5 8.8 21.2 8.8s15.4-2.9 21.2-8.8l149.8-149.8c7.6 19 11.8 39.8 11.8 61.5-0.1 91.8-74.7 166.4-166.4 166.4z" p-id="1889"></path><path d="M471.4 878H261.1c-16.5 0-30-13.5-30-30V176c0-16.5 13.5-30 30-30h502c16.5 0 30 13.5 30 30v250.4c0 16.6 13.4 30 30 30s30-13.4 30-30V176c0-49.6-40.4-90-90-90h-502c-49.6 0-90 40.4-90 90v672c0 49.6 40.4 90 90 90h210.3c16.6 0 30-13.4 30-30s-13.4-30-30-30z" p-id="1890"></path><path d="M709.9 236.8H314.3c-16.6 0-30 13.4-30 30s13.4 30 30 30H710c16.6 0 30-13.4 30-30s-13.5-30-30.1-30zM739.9 430.3c0-16.6-13.4-30-30-30H314.3c-16.6 0-30 13.4-30 30s13.4 30 30 30H710c16.5 0 29.9-13.5 29.9-30zM444.3 563.7h-130c-16.6 0-30 13.4-30 30s13.4 30 30 30h130c16.6 0 30-13.4 30-30s-13.4-30-30-30zM444.3 727.2h-130c-16.6 0-30 13.4-30 30s13.4 30 30 30h130c16.6 0 30-13.4 30-30s-13.4-30-30-30z" p-id="1891"></path></svg>