<?xml version="1.0" standalone="no"?><!DOCTYPE svg PUBLIC "-//W3C//DTD SVG 1.1//EN" "http://www.w3.org/Graphics/SVG/1.1/DTD/svg11.dtd"><svg t="1560908876448" class="icon" style="" viewBox="0 0 1024 1024" version="1.1" xmlns="http://www.w3.org/2000/svg" p-id="10895" xmlns:xlink="http://www.w3.org/1999/xlink" width="128" height="128"><defs><style type="text/css"></style></defs><path d="M153.6 58.88v901.632h706.56V58.88H153.6z m641.024 834.56H218.624v-768h576v768z" p-id="10896"></path><path d="M399.36 228.352h-35.84c-2.048 0-4.608 1.536-5.12 3.584l-31.232 186.368c-0.512 4.096 2.56 7.68 6.144 7.68h32.768c2.048 0 4.096-1.536 4.096-3.584l33.28-188.416c1.024-3.072-1.024-5.632-4.096-5.632zM537.088 242.176c-8.704-10.24-23.552-15.36-39.424-15.36-15.872 0-32.256 5.12-44.544 15.36-12.288 9.728-19.968 22.016-23.552 42.496l-15.36 86.016c-3.584 20.48 0 32.256 8.704 42.496 8.704 10.24 23.552 15.36 39.424 15.36 15.872 0 32.256-5.12 44.544-15.36 12.288-9.728 19.968-22.016 23.552-42.496l15.36-86.016c3.584-20.48 0-32.768-8.704-42.496z m-35.328 40.96l-15.872 89.6c-2.048 10.752-8.704 16.384-16.896 16.384s-12.8-5.12-11.264-16.384l15.872-89.6c2.048-10.752 8.704-16.384 16.896-16.384 8.192 0 13.312 5.12 11.264 16.384zM676.352 242.176c-8.704-10.24-23.552-15.36-39.424-15.36s-32.256 5.12-44.544 15.36c-12.288 9.728-19.968 22.016-23.552 42.496l-15.36 86.016c-3.584 20.48 0 32.256 8.704 42.496 8.704 10.24 23.552 15.36 39.424 15.36 15.872 0 32.256-5.12 44.544-15.36 12.288-9.728 19.968-22.016 23.552-42.496l15.36-86.016c3.584-20.48 0-32.768-8.704-42.496z m-35.328 40.96l-15.872 89.6c-2.048 10.752-8.704 16.384-16.896 16.384s-12.8-5.12-11.264-16.384l15.872-89.6c2.048-10.752 8.704-16.384 16.896-16.384 8.192 0 13.312 5.12 11.264 16.384zM313.856 515.584h347.648V573.44H313.856zM313.856 638.976h275.968v57.856H313.856zM313.856 767.488h275.968v57.856H313.856z" p-id="10897"></path></svg>