<?xml version="1.0" standalone="no"?><!DOCTYPE svg PUBLIC "-//W3C//DTD SVG 1.1//EN" "http://www.w3.org/Graphics/SVG/1.1/DTD/svg11.dtd"><svg t="1560953246524" class="icon" style="" viewBox="0 0 1024 1024" version="1.1" xmlns="http://www.w3.org/2000/svg" p-id="40073" xmlns:xlink="http://www.w3.org/1999/xlink" width="128" height="128"><defs><style type="text/css"></style></defs><path d="M509.866667 307.0976H289.352533a25.838933 25.838933 0 0 0-22.382933 12.928 25.864533 25.864533 0 0 0 0 25.856 25.838933 25.838933 0 0 0 22.382933 12.923733H509.866667a25.838933 25.838933 0 0 0 22.382933-12.928 25.864533 25.864533 0 0 0 0-25.856 25.838933 25.838933 0 0 0-22.382933-12.923733z m0 155.118933H289.352533a25.838933 25.838933 0 0 0-22.382933 12.928 25.864533 25.864533 0 0 0 0 25.856 25.838933 25.838933 0 0 0 22.382933 12.923734H509.866667a25.834667 25.834667 0 0 0 23.057066-12.680534 25.864533 25.864533 0 0 0 0-26.325333 25.834667 25.834667 0 0 0-23.057066-12.672v-0.029867z m358.421333-51.703466c-0.955733-29.482667-25.595733-52.6208-55.0656-51.707734h-165.6064V203.6864c-0.951467-29.482667-25.595733-52.6208-55.061333-51.707733H206.741333a53.367467 53.367467 0 0 0-38.340266 14.382933 53.422933 53.422933 0 0 0-16.878934 37.3248v672.1792h-27.5456a25.838933 25.838933 0 0 0-22.378666 12.928 25.864533 25.864533 0 0 0 0 25.856 25.838933 25.838933 0 0 0 22.378666 12.923733h771.780267a25.838933 25.838933 0 0 0 22.378667-12.928 25.864533 25.864533 0 0 0 0-25.856 25.838933 25.838933 0 0 0-22.378667-12.923733h-27.52l0.0512-465.352533zM592.631467 875.861333H206.741333V225.9968a23.261867 23.261867 0 0 1 23.825067-22.3616h338.1632a23.261867 23.261867 0 0 1 23.825067 22.3616v650.001067l0.0768-0.128z m220.437333 0h-165.376V433.079467a23.261867 23.261867 0 0 1 23.825067-22.357334h117.700266a23.261867 23.261867 0 0 1 23.825067 22.357334v443.0464l0.0256-0.256z m-303.202133-258.474666H289.352533a25.838933 25.838933 0 0 0-22.382933 12.923733 25.864533 25.864533 0 0 0 0 25.856 25.838933 25.838933 0 0 0 22.382933 12.923733H509.866667a25.838933 25.838933 0 0 0 22.382933-12.928 25.864533 25.864533 0 0 0 0-25.856 25.838933 25.838933 0 0 0-22.382933-12.923733z" p-id="40074"></path></svg>