<?xml version="1.0" standalone="no"?><!DOCTYPE svg PUBLIC "-//W3C//DTD SVG 1.1//EN" "http://www.w3.org/Graphics/SVG/1.1/DTD/svg11.dtd"><svg t="1560908670215" class="icon" style="" viewBox="0 0 1024 1024" version="1.1" xmlns="http://www.w3.org/2000/svg" p-id="6124" xmlns:xlink="http://www.w3.org/1999/xlink" width="128" height="128"><defs><style type="text/css"></style></defs><path d="M785.022699 122.6719l-51.329039 0 0-0.191358c0-30.715559-24.931832-55.619762-55.620785-55.619762L344.62241 66.86078c-30.743188 0-55.620785 24.904203-55.620785 55.619762l0 0.191358-49.971112 0c-48.721655 0-88.427982 35.848463-88.427982 79.926354l0 441.729563-0.054235 0L150.548296 877.211842c0 44.077891 39.705304 79.926354 88.482217 79.926354l545.935903 0c48.721655 0 88.482217-35.848463 88.482217-79.926354L873.448634 657.96235l0 0L873.448634 202.599278C873.449657 158.520363 833.798589 122.6719 785.022699 122.6719zM344.62241 122.481565l333.449441 0 0 55.620785L344.62241 178.102351 344.62241 122.481565zM817.828872 644.328841 817.828872 644.328841 817.828872 877.211842c0 13.198603-15.099906 24.333198-32.861432 24.333198L239.031537 901.54504c-17.815761 0-32.861432-11.134595-32.861432-24.333198L206.170105 657.96235l0.054235 0L206.22434 202.599278c0-13.198603 15.045671-24.334221 32.807197-24.334221l49.971112 0c0.10847 30.635741 24.930809 55.457056 55.620785 55.457056l333.449441 0c30.68793 0 55.620785-24.904203 55.620785-55.620785l0 0.162706 51.329039 0c17.815761 0 32.807197 11.135618 32.807197 24.334221L817.829895 644.328841z" p-id="6125"></path><path d="M316.540841 344.962659c-15.371082 0-27.810393 12.438287-27.810393 27.810393s12.438287 27.810393 27.810393 27.810393 27.810393-12.438287 27.810393-27.810393S331.912947 344.962659 316.540841 344.962659z" p-id="6126"></path><path d="M705.883267 344.962659 427.781388 344.962659c-15.371082 0-27.810393 12.438287-27.810393 27.810393s12.438287 27.810393 27.810393 27.810393l278.101879 0c15.371082 0 27.810393-12.438287 27.810393-27.810393S721.25435 344.962659 705.883267 344.962659z" p-id="6127"></path><path d="M316.540841 511.822968c-15.371082 0-27.810393 12.438287-27.810393 27.810393s12.438287 27.810393 27.810393 27.810393 27.810393-12.438287 27.810393-27.810393S331.912947 511.822968 316.540841 511.822968z" p-id="6128"></path><path d="M705.883267 511.822968 427.781388 511.822968c-15.371082 0-27.810393 12.438287-27.810393 27.810393s12.438287 27.810393 27.810393 27.810393l278.101879 0c15.371082 0 27.810393-12.438287 27.810393-27.810393S721.25435 511.822968 705.883267 511.822968z" p-id="6129"></path><path d="M316.540841 678.6843c-15.371082 0-27.810393 12.438287-27.810393 27.810393s12.438287 27.810393 27.810393 27.810393 27.810393-12.438287 27.810393-27.810393S331.912947 678.6843 316.540841 678.6843z" p-id="6130"></path><path d="M705.883267 678.6843 427.781388 678.6843c-15.371082 0-27.810393 12.438287-27.810393 27.810393s12.438287 27.810393 27.810393 27.810393l278.101879 0c15.371082 0 27.810393-12.438287 27.810393-27.810393S721.25435 678.6843 705.883267 678.6843z" p-id="6131"></path></svg>