<?xml version="1.0" standalone="no"?><!DOCTYPE svg PUBLIC "-//W3C//DTD SVG 1.1//EN" "http://www.w3.org/Graphics/SVG/1.1/DTD/svg11.dtd"><svg t="1561274823896" class="icon" viewBox="0 0 1024 1024" version="1.1" xmlns="http://www.w3.org/2000/svg" p-id="650" xmlns:xlink="http://www.w3.org/1999/xlink" width="128" height="128"><defs><style type="text/css"></style></defs><path d="M512 715.556069 227.679489 715.556069l0 40.564881 284.320511 0L512 715.556069 512 715.556069zM633.877815 634.059963 227.679489 634.059963l0 40.748053 406.198326 0L633.877815 634.059963 633.877815 634.059963zM430.870238 552.748053 227.679489 552.748053l0 40.564881 203.190749 0L430.870238 552.748053 430.870238 552.748053zM857.167321 64.322981l-527.892969 0c-11.145851 0-20.282952 9.136078-20.282952 20.282952l0 61.029982 40.564881 0L349.556281 105.071034l487.328088 0 0 670.053736-66.877153-53.721529c-3.654226-3.654226-8.770757-5.847172-14.435781-5.847172l0 48.970318 1.644453-1.461281 85.515652 68.521606c3.654226 3.654226 8.770757 6.030343 14.435781 6.030343 11.145851 0 20.282952-9.136078 20.282952-20.465101L877.450273 84.605933C877.450273 73.459059 868.314195 64.322981 857.167321 64.322981zM674.442696 897.184733l-66.877153-53.721529c-3.654226-3.654226-8.770757-5.847172-14.435781-5.847172-5.481851 0-10.598382 2.192945-14.252609 5.847172l-66.877153 67.060325-66.877153-67.060325c-3.654226-3.654226-8.770757-5.847172-14.252609-5.847172-5.664 0-10.780531 2.192945-14.435781 5.847172l-66.877153 67.060325-66.877153-67.060325c-3.654226-3.654226-8.770757-5.847172-14.252609-5.847172-5.664 0-10.780531 2.192945-14.435781 5.847172l-66.877153 53.721529L187.114608 227.130997l487.328088 0L674.442696 897.184733zM694.724625 186.383968l-527.892969 0c-11.145851 0-20.282952 9.136078-20.282952 20.465101l0 732.544998c0 11.145851 9.136078 20.282952 20.282952 20.282952 5.664 0 10.780531-2.192945 14.435781-6.030343l85.515652-68.521606 68.521606 68.521606c3.654226 3.654226 8.587586 6.030343 14.252609 6.030343 5.664 0 10.780531-2.375094 14.435781-6.030343l66.877153-66.877153 66.695005 66.877153c3.654226 3.654226 8.770757 6.030343 14.435781 6.030343s10.598382-2.192945 14.435781-6.030343l68.339458-68.521606 85.515652 68.521606c3.654226 3.837398 8.770757 6.030343 14.435781 6.030343 11.145851 0 20.282952-9.136078 20.282952-20.282952L715.010647 206.849068C715.007577 195.520045 705.871499 186.383968 694.724625 186.383968zM471.435119 267.87905l-40.564881 0 0 203.372897 40.564881 0L471.435119 267.87905zM633.877815 267.87905l-40.748053 0 0 203.372897 40.748053 0L633.877815 267.87905zM268.427542 267.87905l-40.748053 0 0 203.372897 40.748053 0L268.427542 267.87905zM552.564881 267.87905l-40.564881 0 0 203.372897 40.564881 0L552.564881 267.87905zM390.122185 267.87905l-81.129762 0 0 203.372897 81.129762 0L390.122185 267.87905z" p-id="651"></path></svg>